<?xml version="1.0" encoding="utf-8"?>
<!-- Generator: Adobe Illustrator 16.0.0, SVG Export Plug-In . SVG Version: 6.00 Build 0)  -->
<!DOCTYPE svg PUBLIC "-//W3C//DTD SVG 1.1//EN" "http://www.w3.org/Graphics/SVG/1.1/DTD/svg11.dtd">
<svg version="1.1" id="Layer_1" xmlns="http://www.w3.org/2000/svg" xmlns:xlink="http://www.w3.org/1999/xlink" x="0px" y="0px"
	 width="1300px" height="200px" viewBox="0 0 1300 200" enable-background="new 0 0 1300 200" xml:space="preserve">
<image overflow="visible" width="1600" height="254" xlink:href="111.jpg"  transform="matrix(0.8125 0 0 0.8192 0 -4.0425)">
</image>
<path fill="#F6AA68" d="M642.684,61.121c-11.207,0.165-11.536-8.735-11.536-8.735s4.614-0.33,6.757,0.659
	c-2.637-3.956,0.659-11.867,0.659-11.867s5.109,7.746,5.439,11.372c1.647-2.967,4.779-5.439,4.779-5.439
	S649.771,60.296,642.684,61.121z"/>
<path fill="#669286" d="M804.956,30.361c-4.289-10.354,3.86-13.945,3.86-13.945s2.01,4.168,1.882,6.523
	c2.703-3.91,11.271-3.768,11.271-3.768s-5.313,7.607-8.562,9.252c3.365,0.438,6.818,2.436,6.818,2.436
	S808.338,36.645,804.956,30.361z"/>
<g>
	<path fill="#F08160" d="M919.635,35.804c-0.146,1.622,4.787,10.308,11.65,8.527c9.271-2.406,11.682-12.872,11.499-13.773
		c-0.385-1.897-5.409-4.019-11.274,0.017C924.289,35.542,919.785,34.126,919.635,35.804z"/>
	<path fill="#522317" d="M922.534,36.809c1.103,0.525,2.274,0.781,3.434,0.895c1.163,0.114,2.332,0.071,3.491-0.104
		c1.16-0.174,2.314-0.488,3.447-0.896c1.126-0.429,2.227-1.058,3.306-1.767c2.168-1.393,4.243-3.173,6.414-4.679
		c1.087-0.743,2.196-1.443,3.361-1.886c1.157-0.428,2.402-0.622,3.572-0.074c0.068,0.032,0.107,0.146,0.088,0.255
		c-0.02,0.105-0.087,0.167-0.153,0.143c-1.122-0.423-2.299-0.198-3.411,0.287c-1.12,0.474-2.201,1.192-3.266,1.965
		c-2.128,1.559-4.21,3.335-6.402,4.786c-1.097,0.715-2.226,1.34-3.391,1.772c-1.166,0.396-2.336,0.729-3.524,0.852
		c-2.367,0.258-4.781,0.074-7.057-1.164c-0.067-0.036-0.104-0.153-0.081-0.26c0.022-0.104,0.093-0.162,0.158-0.13L922.534,36.809z"
		/>
	<path fill="#522317" d="M925.49,40.778c0.664-1.332,1.527-2.4,2.466-3.212l-0.075,0.641c-0.47-0.931-0.921-1.886-1.328-2.898
		c-0.039-0.096-0.021-0.224,0.039-0.286c0.051-0.053,0.116-0.04,0.158,0.024c0.548,0.827,1.053,1.711,1.539,2.619
		c0.094,0.176,0.081,0.439-0.028,0.59c-0.013,0.016-0.026,0.031-0.039,0.043l-0.008,0.007c-0.889,0.81-1.715,1.759-2.543,2.765
		c-0.057,0.069-0.139,0.052-0.182-0.039C925.452,40.956,925.455,40.85,925.49,40.778z"/>
	<path fill="#522317" d="M930.08,42.038c0.146-0.538,0.325-1.053,0.52-1.553c0.197-0.499,0.419-0.972,0.656-1.425
		c0.481-0.898,1.033-1.706,1.646-2.375l0.062,0.747c-0.298-0.177-0.559-0.459-0.782-0.773c-0.226-0.314-0.415-0.666-0.594-1.015
		c-0.351-0.699-0.685-1.403-1.011-2.127c-0.042-0.093-0.029-0.222,0.029-0.288c0.052-0.059,0.122-0.049,0.166,0.02
		c0.397,0.623,0.784,1.27,1.16,1.913c0.372,0.634,0.762,1.213,1.214,1.472c0.138,0.079,0.21,0.321,0.161,0.541
		c-0.019,0.084-0.053,0.153-0.095,0.201l-0.004,0.005c-0.568,0.655-1.101,1.389-1.582,2.208c-0.243,0.405-0.473,0.833-0.692,1.274
		c-0.223,0.439-0.427,0.902-0.628,1.373c-0.04,0.094-0.121,0.119-0.18,0.055C930.074,42.234,930.056,42.127,930.08,42.038z"/>
	<path fill="#522317" d="M935.276,40.647c0.235-2.558,1.027-4.988,2.166-6.86l0.161,0.717c-0.348-0.071-0.683-0.247-0.986-0.489
		c-0.304-0.241-0.581-0.541-0.838-0.864s-0.496-0.671-0.726-1.026c-0.228-0.358-0.456-0.707-0.677-1.074
		c-0.05-0.083-0.049-0.213,0.003-0.292c0.046-0.071,0.116-0.076,0.166-0.018c0.513,0.602,1.002,1.26,1.508,1.817
		c0.505,0.558,1.046,0.994,1.613,1.101c0.146,0.028,0.25,0.238,0.233,0.472c-0.007,0.095-0.033,0.179-0.071,0.243l-0.001,0.003
		c-1.062,1.785-1.831,3.978-2.301,6.362c-0.021,0.109-0.094,0.169-0.161,0.136C935.305,40.844,935.268,40.746,935.276,40.647z"/>
</g>
</svg>
