<?xml version="1.0" encoding="UTF-8"?>
<svg width="256px" height="256px" viewBox="0 0 256 256" version="1.1" xmlns="http://www.w3.org/2000/svg" xmlns:xlink="http://www.w3.org/1999/xlink">
    <!-- Generator: Sketch 57 (83077) - https://sketch.com -->
    <title>Icons/Illustrative/cards/activate-card-256x256</title>
    <desc>Created with Sketch.</desc>
    <g id="Icons/Illustrative/cards/activate-card-256x256" stroke="none" stroke-width="1" fill="none" fill-rule="evenodd">
        <g id="Group">
            <g id="Icons/Illustrative/Oval" fill="#F2F3F2">
                <circle id="Oval" cx="128" cy="128" r="128"></circle>
            </g>
            <g id="Group-12" transform="translate(48.000000, 71.000000)">
                <path d="M135.260737,63 C125.043111,63 115.831767,69.1554848 111.922585,78.5957276 C108.013404,88.0359705 110.176376,98.901531 117.402759,106.125053 C124.629142,113.348575 135.495558,115.507245 144.934252,111.594326 C154.372946,107.681407 160.524782,98.4676254 160.520739,88.25 C160.504196,74.3077635 149.202979,63.0110204 135.260737,63 L135.260737,63 Z" id="Path" fill="#8B1D41" fill-rule="nonzero"></path>
                <polygon id="Path" fill="#FFFFFF" fill-rule="nonzero" points="131.850737 99.01 121.970737 89.12 124.090737 87 131.850737 94.76 148.050737 78.56 150.180737 80.68"></polygon>
                <path d="M107.028,82.456 L76.288,82.456 C74.279,82.456 72.647,80.827 72.647,78.819 C72.647,76.816 74.278,75.181 76.288,75.181 L109.63,75.181 C114.331,66.175 123.752,60.023 134.615,60.023 C136.509,60.023 138.358,60.213 140.146,60.569 L140.146,29.308 L0,29.308 L0,83.526 C0,88.051 3.67,91.721 8.196,91.721 L106.667,91.721 C106.524,90.566 106.441,89.392 106.441,88.198 C106.441,86.23 106.644,84.31 107.028,82.456 L107.028,82.456 Z" id="Path" fill="#C41F3E"></path>
                <path d="M140.1457,4.6617 C140.1457,2.0867 138.0587,-0.0003 135.4857,-0.0003 L4.6647,-0.0003 C2.0877,-0.0003 -0.0003,2.0877 -0.0003,4.6637 L-0.0003,9.8447 L140.1457,9.8447 L140.1457,4.6617 Z" id="Fill-3" fill="#C41F3E"></path>
                <polygon id="Fill-4" fill="#7B003A" points="0 29.307 140.146 29.307 140.146 12.395 0 12.395"></polygon>
                <polygon id="Fill-5" fill="#FFFFFF" points="7.723 57.297 91.643 57.297 91.643 41.223 7.723 41.223"></polygon>
                <path d="M105.9914,58.6085 L127.8194,58.6085 C130.3314,58.6085 132.3644,56.5775 132.3644,54.0675 L132.3644,44.9645 C132.3644,42.4555 130.3374,40.4215 127.8194,40.4215 L105.9914,40.4215 C103.4794,40.4215 101.4444,42.4555 101.4444,44.9645 L101.4444,54.0675 C101.4444,56.5775 103.4734,58.6085 105.9914,58.6085" id="Fill-6" fill="#FFFFFF"></path>
                <path d="M76.2883,75.1808 C74.2773,75.1808 72.6463,76.8158 72.6463,78.8198 C72.6463,80.8268 74.2793,82.4558 76.2883,82.4558 L107.0273,82.4558 C107.5593,79.8838 108.4483,77.4438 109.6303,75.1808 L76.2883,75.1808 Z" id="Fill-7" fill="#FFFFFF"></path>
            </g>
        </g>
    </g>
</svg>