<?xml version="1.0" standalone="no"?>
<!DOCTYPE svg PUBLIC "-//W3C//DTD SVG 20010904//EN"
 "http://www.w3.org/TR/2001/REC-SVG-20010904/DTD/svg10.dtd">
<svg version="1.0" xmlns="http://www.w3.org/2000/svg"
 width="512.000000pt" height="512.000000pt" viewBox="0 0 512.000000 512.000000"
 preserveAspectRatio="xMidYMid meet">

<g transform="translate(0.000000,512.000000) scale(0.100000,-0.100000)"
fill="#000000" stroke="none">
<path d="M455 4210 c-61 -24 -126 -85 -157 -149 -20 -41 -23 -64 -26 -203 l-4
-158 2056 0 2056 0 0 146 c0 81 -5 164 -11 184 -18 59 -78 130 -139 164 l-55
31 -1835 2 c-1797 2 -1836 2 -1885 -17z"/>
<path d="M272 2523 l3 -748 27 -51 c36 -68 108 -130 171 -149 44 -13 228 -15
1366 -15 l1316 0 27 -68 c108 -267 364 -486 665 -569 88 -25 114 -28 258 -27
145 0 168 3 249 28 210 64 342 139 466 265 128 129 212 277 262 459 31 113 31
383 1 494 -94 335 -325 591 -638 704 l-60 22 -3 201 -2 201 -2055 0 -2055 0 2
-747z m4053 127 c217 -69 384 -209 480 -405 56 -113 75 -184 82 -310 21 -368
-223 -701 -588 -801 -88 -25 -299 -25 -389 0 -216 58 -405 212 -505 411 -65
129 -80 195 -80 350 0 155 15 220 79 350 109 219 310 373 557 425 78 16 285 5
364 -20z m-3231 -344 c45 -19 66 -52 66 -104 0 -35 -6 -49 -29 -73 l-29 -29
-255 0 -255 0 -32 32 c-29 29 -32 36 -28 80 6 55 35 95 77 101 14 2 122 5 239
6 162 1 221 -2 246 -13z m874 -19 c17 -16 32 -40 35 -54 7 -39 -11 -90 -40
-113 -25 -19 -39 -20 -327 -20 l-302 0 -28 29 c-39 41 -45 96 -14 141 15 21
35 38 53 42 17 3 157 5 312 5 l282 -2 29 -28z m816 19 c45 -19 66 -52 66 -104
0 -35 -6 -49 -29 -73 l-29 -29 -297 0 c-326 0 -341 2 -365 60 -26 62 11 144
69 153 14 2 144 5 289 6 205 1 270 -2 296 -13z m396 10 c0 -3 -13 -45 -30 -94
-16 -50 -30 -97 -30 -106 0 -13 -11 -16 -52 -16 -77 1 -118 40 -118 114 0 40
38 92 73 99 31 6 157 8 157 3z"/>
<path d="M3962 2415 c-56 -25 -91 -54 -119 -103 -25 -42 -29 -60 -33 -162 l-5
-114 -34 -7 c-18 -4 -45 -19 -60 -33 l-26 -26 0 -229 c0 -322 -29 -301 420
-301 350 0 369 3 405 62 18 30 20 50 20 231 0 245 -11 279 -93 296 l-32 7 -6
114 c-3 78 -10 125 -21 145 -23 43 -87 101 -130 120 -50 20 -239 20 -286 0z
m248 -123 c54 -26 71 -70 68 -172 l-3 -85 -170 0 -170 0 -3 85 c-4 144 38 190
173 190 47 0 82 -6 105 -18z m100 -453 c10 -18 0 -33 -106 -140 -76 -77 -125
-119 -139 -119 -12 0 -42 21 -69 49 -50 51 -58 83 -24 105 14 9 24 4 56 -27
l38 -37 94 95 c99 99 129 114 150 74z"/>
</g>
</svg>
